<mxfile host="app.diagrams.net" agent="Mozilla/5.0 (Windows NT 10.0; Win64; x64) AppleWebKit/537.36 (KHTML, like Gecko) Chrome/132.0.0.0 Safari/537.36 OPR/117.0.0.0" version="26.2.8">
  <diagram name="Página-1" id="Vtgs2oNUZ5IiUr5sIQJY">
    <mxGraphModel dx="833" dy="1622" grid="1" gridSize="10" guides="1" tooltips="1" connect="1" arrows="1" fold="1" page="1" pageScale="1" pageWidth="827" pageHeight="1169" math="0" shadow="0">
      <root>
        <mxCell id="0" />
        <mxCell id="1" parent="0" />
        <mxCell id="-wFTjiIMDDDu-_EDWk77-1" value="" style="edgeStyle=orthogonalEdgeStyle;rounded=0;orthogonalLoop=1;jettySize=auto;html=1;" edge="1" parent="1" source="-wFTjiIMDDDu-_EDWk77-2" target="-wFTjiIMDDDu-_EDWk77-6">
          <mxGeometry relative="1" as="geometry" />
        </mxCell>
        <mxCell id="-wFTjiIMDDDu-_EDWk77-2" value="Início" style="rounded=1;whiteSpace=wrap;html=1;fontSize=12;glass=0;strokeWidth=1;shadow=0;" vertex="1" parent="1">
          <mxGeometry x="425" y="-1060" width="60" height="40" as="geometry" />
        </mxCell>
        <mxCell id="-wFTjiIMDDDu-_EDWk77-3" value="" style="edgeStyle=orthogonalEdgeStyle;rounded=0;orthogonalLoop=1;jettySize=auto;html=1;" edge="1" parent="1" source="-wFTjiIMDDDu-_EDWk77-4" target="-wFTjiIMDDDu-_EDWk77-15">
          <mxGeometry relative="1" as="geometry" />
        </mxCell>
        <mxCell id="-wFTjiIMDDDu-_EDWk77-4" value="&lt;div&gt;&lt;br&gt;&lt;/div&gt;&lt;div&gt;&lt;br&gt;&lt;/div&gt;Ler x" style="shape=manualInput;whiteSpace=wrap;html=1;" vertex="1" parent="1">
          <mxGeometry x="410" y="-644.5" width="90" height="60" as="geometry" />
        </mxCell>
        <mxCell id="-wFTjiIMDDDu-_EDWk77-5" value="" style="edgeStyle=orthogonalEdgeStyle;rounded=0;orthogonalLoop=1;jettySize=auto;html=1;" edge="1" parent="1" source="-wFTjiIMDDDu-_EDWk77-6" target="-wFTjiIMDDDu-_EDWk77-11">
          <mxGeometry relative="1" as="geometry" />
        </mxCell>
        <mxCell id="-wFTjiIMDDDu-_EDWk77-6" value="i = 0" style="rounded=0;whiteSpace=wrap;html=1;" vertex="1" parent="1">
          <mxGeometry x="395" y="-970" width="120" height="60" as="geometry" />
        </mxCell>
        <mxCell id="-wFTjiIMDDDu-_EDWk77-7" value="" style="edgeStyle=orthogonalEdgeStyle;rounded=0;orthogonalLoop=1;jettySize=auto;html=1;" edge="1" parent="1" source="-wFTjiIMDDDu-_EDWk77-11" target="-wFTjiIMDDDu-_EDWk77-13">
          <mxGeometry relative="1" as="geometry" />
        </mxCell>
        <mxCell id="-wFTjiIMDDDu-_EDWk77-8" value="Não" style="edgeLabel;html=1;align=center;verticalAlign=middle;resizable=0;points=[];" vertex="1" connectable="0" parent="-wFTjiIMDDDu-_EDWk77-7">
          <mxGeometry x="-0.64" y="-1" relative="1" as="geometry">
            <mxPoint as="offset" />
          </mxGeometry>
        </mxCell>
        <mxCell id="-wFTjiIMDDDu-_EDWk77-9" style="edgeStyle=orthogonalEdgeStyle;rounded=0;orthogonalLoop=1;jettySize=auto;html=1;entryX=0;entryY=0.5;entryDx=0;entryDy=0;" edge="1" parent="1" source="-wFTjiIMDDDu-_EDWk77-11" target="-wFTjiIMDDDu-_EDWk77-16">
          <mxGeometry relative="1" as="geometry" />
        </mxCell>
        <mxCell id="-wFTjiIMDDDu-_EDWk77-10" value="Sim" style="edgeLabel;html=1;align=center;verticalAlign=middle;resizable=0;points=[];" vertex="1" connectable="0" parent="-wFTjiIMDDDu-_EDWk77-9">
          <mxGeometry x="-0.0312" relative="1" as="geometry">
            <mxPoint as="offset" />
          </mxGeometry>
        </mxCell>
        <mxCell id="-wFTjiIMDDDu-_EDWk77-11" value="i = 15 ?" style="shape=hexagon;perimeter=hexagonPerimeter2;whiteSpace=wrap;html=1;fixedSize=1;" vertex="1" parent="1">
          <mxGeometry x="395" y="-880" width="120" height="80" as="geometry" />
        </mxCell>
        <mxCell id="-wFTjiIMDDDu-_EDWk77-12" value="" style="edgeStyle=orthogonalEdgeStyle;rounded=0;orthogonalLoop=1;jettySize=auto;html=1;" edge="1" parent="1" source="-wFTjiIMDDDu-_EDWk77-13" target="-wFTjiIMDDDu-_EDWk77-4">
          <mxGeometry relative="1" as="geometry" />
        </mxCell>
        <mxCell id="-wFTjiIMDDDu-_EDWk77-13" value="i = i + 1" style="whiteSpace=wrap;html=1;" vertex="1" parent="1">
          <mxGeometry x="395" y="-750" width="120" height="60" as="geometry" />
        </mxCell>
        <mxCell id="-wFTjiIMDDDu-_EDWk77-14" style="edgeStyle=orthogonalEdgeStyle;rounded=0;orthogonalLoop=1;jettySize=auto;html=1;entryX=0;entryY=0.5;entryDx=0;entryDy=0;" edge="1" parent="1" source="-wFTjiIMDDDu-_EDWk77-15" target="-wFTjiIMDDDu-_EDWk77-11">
          <mxGeometry relative="1" as="geometry">
            <Array as="points">
              <mxPoint x="250" y="-520" />
              <mxPoint x="250" y="-840" />
            </Array>
          </mxGeometry>
        </mxCell>
        <mxCell id="-wFTjiIMDDDu-_EDWk77-15" value="√x" style="shape=display;whiteSpace=wrap;html=1;" vertex="1" parent="1">
          <mxGeometry x="415" y="-540" width="80" height="40" as="geometry" />
        </mxCell>
        <mxCell id="-wFTjiIMDDDu-_EDWk77-16" value="Fim" style="rounded=1;whiteSpace=wrap;html=1;fontSize=12;glass=0;strokeWidth=1;shadow=0;" vertex="1" parent="1">
          <mxGeometry x="651.25" y="-860" width="60" height="40" as="geometry" />
        </mxCell>
      </root>
    </mxGraphModel>
  </diagram>
</mxfile>
